<svg width="523" height="92" viewBox="0 0 523 92" fill="none" xmlns="http://www.w3.org/2000/svg">
<path d="M179.858 51.7124V71H172.691V23.5039H180.812C184.791 23.5039 187.795 23.7808 189.825 24.3345C191.876 24.8882 193.681 25.9341 195.239 27.4722C197.967 30.1382 199.331 33.5015 199.331 37.562C199.331 41.9097 197.875 45.355 194.962 47.8979C192.05 50.4409 188.123 51.7124 183.181 51.7124H179.858ZM179.858 45.0679H182.535C189.118 45.0679 192.409 42.5352 192.409 37.4697C192.409 32.5684 189.015 30.1177 182.227 30.1177H179.858V45.0679ZM225.755 41.0381H232.707V71H225.755V67.8623C222.904 70.5283 219.838 71.8613 216.557 71.8613C212.415 71.8613 208.99 70.3643 206.283 67.3701C203.596 64.3145 202.253 60.5 202.253 55.9268C202.253 51.4355 203.596 47.6929 206.283 44.6987C208.969 41.7046 212.333 40.2075 216.373 40.2075C219.859 40.2075 222.986 41.6431 225.755 44.5142V41.0381ZM209.328 55.9268C209.328 58.7979 210.097 61.1357 211.635 62.9404C213.214 64.7656 215.204 65.6782 217.603 65.6782C220.167 65.6782 222.238 64.7964 223.817 63.0327C225.396 61.2075 226.186 58.8901 226.186 56.0806C226.186 53.271 225.396 50.9536 223.817 49.1284C222.238 47.3442 220.187 46.4521 217.665 46.4521C215.286 46.4521 213.296 47.3545 211.697 49.1592C210.118 50.9844 209.328 53.2402 209.328 55.9268ZM241.443 41.0381H248.365V43.7144C249.636 42.3813 250.764 41.4688 251.749 40.9766C252.753 40.4639 253.943 40.2075 255.317 40.2075C257.142 40.2075 259.049 40.8022 261.039 41.9917L257.87 48.3286C256.558 47.3853 255.276 46.9136 254.025 46.9136C250.251 46.9136 248.365 49.7642 248.365 55.4653V71H241.443V41.0381ZM272.913 19.0435V50.728L282.664 41.0381H291.954L278.942 53.6196L292.908 71H283.925L274.02 58.3569L272.913 59.4644V71H265.991V19.0435H272.913ZM304.29 41.0381V71H297.368V41.0381H304.29ZM296.322 28.5796C296.322 27.3696 296.763 26.3237 297.645 25.4419C298.527 24.5601 299.583 24.1191 300.813 24.1191C302.064 24.1191 303.131 24.5601 304.013 25.4419C304.895 26.3032 305.335 27.3594 305.335 28.6104C305.335 29.8613 304.895 30.9277 304.013 31.8096C303.151 32.6914 302.095 33.1323 300.844 33.1323C299.593 33.1323 298.527 32.6914 297.645 31.8096C296.763 30.9277 296.322 29.8511 296.322 28.5796ZM313.057 41.0381H320.009V43.8066C322.429 41.4072 325.156 40.2075 328.191 40.2075C331.678 40.2075 334.395 41.3047 336.343 43.499C338.025 45.3652 338.866 48.4106 338.866 52.6353V71H331.914V54.2656C331.914 51.3125 331.503 49.272 330.683 48.144C329.883 46.9956 328.427 46.4214 326.315 46.4214C324.018 46.4214 322.388 47.1802 321.424 48.6978C320.48 50.1948 320.009 52.8096 320.009 56.542V71H313.057V41.0381ZM376.61 70.2925C376.61 71.7075 376.559 72.9482 376.457 74.0146C376.375 75.1016 376.251 76.0552 376.087 76.8755C375.595 79.1313 374.631 81.0693 373.196 82.6895C370.489 85.8066 366.767 87.3652 362.029 87.3652C358.03 87.3652 354.739 86.2886 352.155 84.1353C349.489 81.9204 347.951 78.8545 347.541 74.9375H354.493C354.759 76.4141 355.2 77.5522 355.815 78.3521C357.251 80.2183 359.343 81.1514 362.091 81.1514C367.156 81.1514 369.689 78.0444 369.689 71.8306V67.647C366.941 70.4565 363.772 71.8613 360.184 71.8613C356.103 71.8613 352.76 70.3848 350.155 67.4316C347.53 64.4375 346.218 60.6948 346.218 56.2036C346.218 51.8354 347.438 48.1235 349.878 45.0679C352.503 41.8276 355.969 40.2075 360.276 40.2075C364.049 40.2075 367.187 41.6123 369.689 44.4219V41.0381H376.61V70.2925ZM369.966 56.0806C369.966 53.1685 369.187 50.8408 367.628 49.0977C366.049 47.3135 364.029 46.4214 361.568 46.4214C358.943 46.4214 356.872 47.3955 355.354 49.3438C353.98 51.0869 353.293 53.3428 353.293 56.1113C353.293 58.8389 353.98 61.0742 355.354 62.8174C356.851 64.7246 358.922 65.6782 361.568 65.6782C364.213 65.6782 366.305 64.7144 367.843 62.7866C369.258 61.0435 369.966 58.8081 369.966 56.0806ZM434.012 59.4644H413.678L408.387 71H400.666L424.168 20.52L446.839 71H438.995L434.012 59.4644ZM431.089 52.7275L424.045 36.5776L416.662 52.7275H431.089ZM458.406 87.3037H451.484V41.0381H458.406V44.2988C461.133 41.5713 464.23 40.2075 467.696 40.2075C471.818 40.2075 475.212 41.7251 477.878 44.7603C480.585 47.7749 481.938 51.5791 481.938 56.1729C481.938 60.6641 480.595 64.4067 477.909 67.4009C475.243 70.3745 471.879 71.8613 467.819 71.8613C464.312 71.8613 461.174 70.4565 458.406 67.647V87.3037ZM474.863 56.2036C474.863 53.3325 474.084 50.9946 472.525 49.1899C470.946 47.3647 468.957 46.4521 466.558 46.4521C464.015 46.4521 461.954 47.334 460.375 49.0977C458.795 50.8613 458.006 53.1787 458.006 56.0498C458.006 58.8594 458.795 61.1768 460.375 63.002C461.933 64.7861 463.984 65.6782 466.527 65.6782C468.926 65.6782 470.905 64.7759 472.464 62.9712C474.063 61.1665 474.863 58.9106 474.863 56.2036ZM496.181 87.3037H489.26V41.0381H496.181V44.2988C498.909 41.5713 502.005 40.2075 505.471 40.2075C509.593 40.2075 512.987 41.7251 515.653 44.7603C518.36 47.7749 519.714 51.5791 519.714 56.1729C519.714 60.6641 518.371 64.4067 515.684 67.4009C513.018 70.3745 509.655 71.8613 505.594 71.8613C502.087 71.8613 498.95 70.4565 496.181 67.647V87.3037ZM512.639 56.2036C512.639 53.3325 511.859 50.9946 510.301 49.1899C508.722 47.3647 506.732 46.4521 504.333 46.4521C501.79 46.4521 499.729 47.334 498.15 49.0977C496.571 50.8613 495.781 53.1787 495.781 56.0498C495.781 58.8594 496.571 61.1768 498.15 63.002C499.708 64.7861 501.759 65.6782 504.302 65.6782C506.702 65.6782 508.681 64.7759 510.239 62.9712C511.839 61.1665 512.639 58.9106 512.639 56.2036Z" fill="white"/>
<path fill-rule="evenodd" clip-rule="evenodd" d="M72.1818 30.5125C70.6969 29.9764 69.1767 29.7083 67.6212 29.7083C66.0454 29.7083 64.5 29.9764 62.9848 30.5125C61.4697 31.0487 60.0656 31.9136 58.7727 33.1072C57.4798 34.3009 56.4293 35.9143 55.6212 37.9476C54.8131 39.9809 54.4091 42.3732 54.4091 45.1247V66.125H96.4091V53.4399H80.6515V45.1247C80.6515 42.3732 80.2525 39.9809 79.4545 37.9476C78.6565 35.9143 77.6161 34.3009 76.3333 33.1072C75.0505 31.9136 73.6666 31.0487 72.1818 30.5125ZM63.5757 44.4116C64.3131 43.228 65.6818 42.6363 67.6818 42.6363C69.0151 42.6363 70.0353 42.8891 70.7424 43.3949C71.4495 43.9007 71.9343 44.7201 72.1969 45.8531C72.4596 46.986 72.5909 48.6045 72.5909 50.7086V53.4399H62.4697V50.7693C62.4697 47.7143 62.8383 45.5951 63.5757 44.4116Z" fill="white"/>
<path fill-rule="evenodd" clip-rule="evenodd" d="M147 92H0V0H147V13.4167H15.5253V78.5833H147V92Z" fill="white"/>
</svg>
